<?xml version="1.0" encoding="UTF-8"?><svg id="Livello_2" xmlns="http://www.w3.org/2000/svg" viewBox="0 0 345.3731 218.1657"><g id="Components"><g id="_9adb073a-ebd8-4106-b9a6-d518c36efa31_1"><path d="M46.1483,211.2767l-.1754-.3021c-.968-1.6677-1.9395-3.3413-2.9006-5.0127,3.9785-1.7432,6.5936-5.6874,6.5824-10.0483-.0013-.5448.0049-1.091.0108-1.6377.0057-.4985.0111-.9973.0113-1.4959.0002-2.8851-1.1651-5.6381-3.2809-7.752-2.0807-2.0784-4.8291-3.2233-7.7386-3.2233H.0172l.0069,6.9127c.0088,1.1271.0022,2.2731-.0044,3.3814-.0044.7501-.0086,1.5002-.0086,2.2512-.0004,1.8765-.0004,3.7588.0135,5.6342.0026,1.9194.0053,4.0949-.0212,6.2499.0144,1.8806.0152,3.7634.0153,5.6363v.0338c-.0002,1.8678-.0004,3.7302-.0141,5.595l-.0047.6664h8.6385l.0047-.6568c.0137-1.8793.0139-3.756.0135-5.6383.0004-1.6551-.0002-3.3178-.0102-4.9799h24.9948c.323.5587.6469,1.1168.9707,1.675.7024,1.2107,1.4046,2.4208,2.0968,3.633.4781.837.9678,1.6757,1.4581,2.5149.597,1.0222,1.2144,2.0791,1.7986,3.1155l.19.3367h9.9716l-.5685-.9908c-1.128-1.9662-2.2665-3.9275-3.4104-5.8981ZM8.6485,189.3739h28.9701c1.8648,0,3.3863,1.5289,3.3921,3.4082l.0035.8186c.0035.7718.0069,1.5432.0024,2.3106v.0002c-.0106,1.8805-1.5349,3.4103-3.3974,3.4103H8.6399c.0091-1.6453.0093-3.2896.0097-4.9373v-.1884l-.0011-4.8221Z" style="fill:#002664;"/><path d="M125.2329,212.0902c-2.6004-3.3235-5.2892-6.7603-7.9077-10.1399-1.6032-2.0694-3.2208-4.1363-4.8391-6.2042-2.2623-2.8908-4.6007-5.8787-6.8632-8.8292l-.0161-.0755-.1102-.1281c-.3712-.4315-.7108-.8805-1.0393-1.3148-.1321-.1745-.2631-.3478-.3955-.5192-1.5546-2.0112-3.748-3.0743-6.3429-3.0743h-4.8194c-2.5482,0-4.7239,1.0623-6.2921,3.0717l-.051.0652c-.4386.5618-.8915,1.1416-1.3071,1.719-.0409.0336-.084.076-.1264.1302-3.4778,4.411-6.9746,8.9175-10.3562,13.2756l-14.0488,18.098h10.9117l.1986-.2546c1.8511-2.3714,3.7014-4.7429,5.5518-7.1178h35.9027c1.8646,2.3816,3.7239,4.7869,5.5238,7.1154l.1988.257h10.9753l-.8341-1.0688c-1.3025-1.6687-2.6079-3.3372-3.9135-5.0059ZM91.8283,192.1983l.0807-.0439.0871-.1188c.3243-.4416.6761-.8975,1.1764-1.5246.5855-.7343,1.3681-1.1359,2.1887-1.1287.8052.0064,1.5533.4043,2.1061,1.1206.1047.1356.2073.2713.31.407.2879.3812.5858.7753.9346,1.1712l.0128.0145c.732.9482,1.4724,1.8981,2.2139,2.8493.8429,1.0814,1.687,2.1645,2.5217,3.2485.8935,1.1603,1.8085,2.3247,2.7243,3.4895.4041.5141.8082,1.0284,1.2106,1.5424h-24.116c.2521-.3242.5042-.6483.7563-.9724,1.0515-1.3513,2.1028-2.7023,3.1463-4.06,1.4733-1.9167,3.0365-3.9334,4.6466-5.9947Z" style="fill:#002664;"/><path d="M187.4668,210.6186h-37.4933c-1.0798,0-2.0971-.4242-2.8644-1.1946-.7576-.7604-1.1724-1.7615-1.1682-2.8188.0049-1.2037.0033-2.408.0016-3.6114-.0015-1.0028-.0027-2.0049-.0004-3.0054.0031-1.2766.0097-2.552.0161-3.828.0046-.9295.0095-1.8593.0128-2.7902.0084-2.216,1.8014-4.0188,3.9968-4.0188h37.4909l.0058-.6557c.0186-2.0672.0082-4.1668-.0016-6.1973l-.0033-.6933h-39.1861c-2.8998,0-5.7231,1.1766-7.7455,3.2281-2.063,2.0928-3.2012,4.8446-3.2051,7.7485-.0013.9511-.0057,1.9016-.01,2.852-.0066,1.4529-.0133,2.9054-.0088,4.359.008,2.3963.0115,4.7978.0086,7.1977-.0037,2.9057,1.1333,5.6583,3.2009,7.7505,2.0244,2.0488,4.8561,3.224,7.7691,3.224h39.1834l.006-.6557c.0186-2.0845.0082-4.193-.002-6.2321l-.0033-.6584Z" style="fill:#002664;"/><polygon points="204.9678 199.9868 204.967 218.1649 213.5889 218.1649 213.589 181.8051 204.9672 181.8051 204.9678 199.9868" style="fill:#002664;"/><path d="M282.1119,182.4648l-.002-.6597h-8.6374l.0033.6649c.0245,4.9326.0181,9.959.0128,14.3937-.0031,2.3992.0015,4.7993.0057,7.1994.0042,2.1783.008,4.3568.0066,6.5346h-1.2738c-1.3971,0-2.4707-.5001-3.3786-1.5735l-1.0858-1.2838c-2.8224-3.3364-5.7408-6.7864-8.5747-10.1852l-2.2941-2.7521c-2.4216-2.9061-4.849-5.8193-7.2859-8.725-2.3445-2.7954-5.5222-4.2731-9.1892-4.2731h-11.277l.0018.6636c.0164,5.6344.0194,11.2674.0214,17.5184l.0002,1.0735c.0016,5.482.0031,10.9619-.0088,16.4412l-.0015.663h8.6083l.0007-.6608c.002-1.5633.0053-3.1265.0088-4.69.0069-3.2348.0139-6.4701.0082-9.7062l-.0011-.6098c-.0079-4.3709-.0159-8.7492-.0124-13.1257h1.2744c1.4033,0,2.4764.4995,3.377,1.572,3.7695,4.4897,6.8219,8.1355,9.6057,11.4737,1.8334,2.1988,3.7177,4.4276,5.5401,6.5831,1.3768,1.6282,2.754,3.2573,4.1247,4.8907,2.3118,2.7554,5.555,4.2729,9.1322,4.2729h11.3017l.0015-.6602c.0119-5.4292.0104-10.8594.009-16.291l-.0004-1.227c-.002-6.252-.0049-11.8858-.0212-17.5219Z" style="fill:#002664;"/><path d="M310.4077,203.7565h26.3231c-.0035,1.1365-.0027,2.2731-.002,3.4094.0007,1.1512.0015,2.3024-.0022,3.4527h-29.2109c-1.0588,0-2.0553-.4163-2.8063-1.1722-.7556-.7609-1.1677-1.7693-1.1604-2.849-.017-2.2026-.0212-4.4116-.0239-6.6113-.0011-.8651.0018-1.7298.0049-2.5944.0047-1.3197.0095-2.6843-.0015-4.0195.015-2.2172,1.8136-4.0208,4.0092-4.0208h37.8352l-.0057-.6672c-.0088-1.0265-.0106-2.0531-.0124-3.0798-.0018-1.0478-.0037-2.0957-.0126-3.1434l-.0058-.6559h-39.4865c-.5858,0-1.1386.045-1.74.1418-3.5443.5737-6.6131,2.8981-8.2154,6.2309-.6617,1.4564-1.0071,3.0498-.9994,4.6057.0033,2.3853-.0073,4.7686-.0194,7.2037-.0075,1.5908-.0029,3.1841.0018,4.7772.0026.8093.0047,1.6185.0057,2.4284.0073,2.9106,1.1333,5.6578,3.1709,7.7358,2.016,2.0567,4.8371,3.2363,7.7395,3.2363h39.5482l.017-21.9514h-34.9402s-.0111,7.5431-.0111,7.5431Z" style="fill:#002664;"/><path d="M118.113,0H18.1438v36.3609h100.1385c4.933,0,8.932,3.999,8.932,8.932v9.2488H45.4646C20.3552,54.5418,0,74.897,0,100.0064v10.6703c0,4.8002,1.907,9.4037,5.3013,12.7978l34.8527,34.8501c3.394,3.3938,7.9972,5.3003,12.7968,5.3003h65.1621c25.1083,0,45.4626-20.3543,45.4626-45.4626V45.4626c0-25.1083-20.3543-45.4626-45.4626-45.4626ZM127.2143,118.3319c0,4.933-3.999,8.932-8.932,8.932H36.3609v-27.4292c0-4.933,3.999-8.932,8.932-8.932h81.9214v27.4292Z" style="fill:#002664;"/><path d="M292.4254,0h-65.2068c-25.1083,0-45.4626,20.3543-45.4626,45.4626v118.1623h36.3612v-54.5418h81.7933c25.1083,0,45.4626-20.3543,45.4626-45.4626v-10.6728c0-4.7999-1.9068-9.4033-5.3008-12.7973l-34.8495-34.8495c-3.3941-3.3941-7.9974-5.3008-12.7973-5.3008ZM309.0121,63.7899c0,4.9332-3.999,8.932-8.932,8.932h-81.9629v-27.4289c0-4.933,3.999-8.932,8.9321-8.932h81.9628v27.4289Z" style="fill:#002664;"/></g></g></svg>