<svg xmlns="http://www.w3.org/2000/svg" width="800" height="800" viewBox="0 0 800 800" role="img" aria-label="Engines &amp; Components placeholder image">
<rect width="800" height="800" fill="#1a1d21"/>
<g stroke="#2c3138" stroke-width="1"><line x1="0" y1="0" x2="0" y2="800"/><line x1="0" y1="0" x2="800" y2="0"/><line x1="50" y1="0" x2="50" y2="800"/><line x1="0" y1="50" x2="800" y2="50"/><line x1="100" y1="0" x2="100" y2="800"/><line x1="0" y1="100" x2="800" y2="100"/><line x1="150" y1="0" x2="150" y2="800"/><line x1="0" y1="150" x2="800" y2="150"/><line x1="200" y1="0" x2="200" y2="800"/><line x1="0" y1="200" x2="800" y2="200"/><line x1="250" y1="0" x2="250" y2="800"/><line x1="0" y1="250" x2="800" y2="250"/><line x1="300" y1="0" x2="300" y2="800"/><line x1="0" y1="300" x2="800" y2="300"/><line x1="350" y1="0" x2="350" y2="800"/><line x1="0" y1="350" x2="800" y2="350"/><line x1="400" y1="0" x2="400" y2="800"/><line x1="0" y1="400" x2="800" y2="400"/><line x1="450" y1="0" x2="450" y2="800"/><line x1="0" y1="450" x2="800" y2="450"/><line x1="500" y1="0" x2="500" y2="800"/><line x1="0" y1="500" x2="800" y2="500"/><line x1="550" y1="0" x2="550" y2="800"/><line x1="0" y1="550" x2="800" y2="550"/><line x1="600" y1="0" x2="600" y2="800"/><line x1="0" y1="600" x2="800" y2="600"/><line x1="650" y1="0" x2="650" y2="800"/><line x1="0" y1="650" x2="800" y2="650"/><line x1="700" y1="0" x2="700" y2="800"/><line x1="0" y1="700" x2="800" y2="700"/><line x1="750" y1="0" x2="750" y2="800"/><line x1="0" y1="750" x2="800" y2="750"/></g>
<circle cx="400" cy="360" r="150" fill="none" stroke="#3d444d" stroke-width="3" stroke-dasharray="8 6"/>
<circle cx="400" cy="360" r="95" fill="none" stroke="#3d444d" stroke-width="2"/>
<line x1="230" y1="360" x2="570" y2="360" stroke="#3d444d" stroke-width="1.5"/>
<line x1="400" y1="190" x2="400" y2="530" stroke="#3d444d" stroke-width="1.5"/>
<text x="400" y="620" text-anchor="middle" font-family="Arial, sans-serif" font-size="34" fill="#8a919b" letter-spacing="2">ENGINES &AMP; COMPONENTS</text>
<text x="400" y="665" text-anchor="middle" font-family="Arial, sans-serif" font-size="18" fill="#5c636c">PRODUCT IMAGE PENDING IMPORT</text>
</svg>